<svg xmlns="http://www.w3.org/2000/svg" viewBox="0 0 101 126.25" fill="none" x="0px" y="0px"><path fill-rule="evenodd" clip-rule="evenodd" d="M100.875 1.44531C100.875 0.893028 100.428 0.445312 99.8755 0.445312H89.8755C89.3232 0.445312 88.8755 0.893028 88.8755 1.44531V11.4453C88.8755 11.9976 89.3232 12.4453 89.8755 12.4453H99.8755C100.428 12.4453 100.875 11.9976 100.875 11.4453V1.44531ZM46.3574 4.97656C46.3574 4.42428 46.8051 3.97656 47.3574 3.97656H49.3574H81.7285C82.2808 3.97656 82.7285 4.42428 82.7285 4.97656V8.97656C82.7285 9.52885 82.2808 9.97656 81.7285 9.97656H53.3574C52.8051 9.97656 52.3574 10.4243 52.3574 10.9766V46.4434C52.3574 46.9956 52.8051 47.4434 53.3574 47.4434H81.7285C82.2808 47.4434 82.7285 47.8911 82.7285 48.4434V52.4434C82.7285 52.9956 82.2808 53.4434 81.7285 53.4434H53.3574C52.8051 53.4434 52.3574 53.8911 52.3574 54.4434V90.3691C52.3574 90.9214 52.8051 91.3691 53.3574 91.3691H81.7285C82.2808 91.3691 82.7285 91.8169 82.7285 92.3691V96.3691C82.7285 96.9214 82.2808 97.3691 81.7285 97.3691H49.3574H47.3574C46.8051 97.3691 46.3574 96.9214 46.3574 96.3691V94.3691V54.4434C46.3574 53.8911 45.9097 53.4434 45.3574 53.4434H20.1301C19.5778 53.4434 19.1301 52.9956 19.1301 52.4434V48.4434C19.1301 47.8911 19.5778 47.4434 20.1301 47.4434H45.3574C45.9097 47.4434 46.3574 46.9956 46.3574 46.4434V6.97656V4.97656ZM88.8755 45.4453C88.8755 44.893 89.3232 44.4453 89.8755 44.4453H99.8755C100.428 44.4453 100.875 44.893 100.875 45.4453V55.4453C100.875 55.9976 100.428 56.4453 99.8755 56.4453H89.8755C89.3232 56.4453 88.8755 55.9976 88.8755 55.4453V45.4453ZM12.8755 45.4453C12.8755 44.893 12.4278 44.4453 11.8755 44.4453H1.87549C1.3232 44.4453 0.875488 44.893 0.875488 45.4453V55.4453C0.875488 55.9976 1.3232 56.4453 1.87549 56.4453H11.8755C12.4278 56.4453 12.8755 55.9976 12.8755 55.4453V45.4453ZM88.8755 89.4453C88.8755 88.893 89.3232 88.4453 89.8755 88.4453H99.8755C100.428 88.4453 100.875 88.893 100.875 89.4453V99.4453C100.875 99.9976 100.428 100.445 99.8755 100.445H89.8755C89.3232 100.445 88.8755 99.9976 88.8755 99.4453V89.4453Z" fill="black"/><text x="0" y="116" fill="#000000" font-size="5px" font-weight="bold" font-family="'Helvetica Neue', Helvetica, Arial-Unicode, Arial, Sans-serif">Created by Aquasec</text><text x="0" y="121" fill="#000000" font-size="5px" font-weight="bold" font-family="'Helvetica Neue', Helvetica, Arial-Unicode, Arial, Sans-serif">from the Noun Project</text></svg>